<mxfile host="app.diagrams.net" modified="2022-04-13T01:26:53.789Z" agent="5.0 (Windows NT 10.0; Win64; x64) AppleWebKit/537.36 (KHTML, like Gecko) Chrome/100.0.4896.75 Safari/537.36" etag="idQ36QfbVSrc1YblfRsZ" version="17.4.3" type="github">
  <diagram name="Page-1" id="9361dd3d-8414-5efd-6122-117bd74ce7a7">
    <mxGraphModel dx="569" dy="279" grid="1" gridSize="10" guides="1" tooltips="1" connect="1" arrows="1" fold="1" page="0" pageScale="1.5" pageWidth="826" pageHeight="1169" background="none" math="0" shadow="0">
      <root>
        <mxCell id="0" />
        <mxCell id="1" parent="0" />
        <mxCell id="23" value="" style="edgeStyle=none;endArrow=none;dashed=1;startArrow=none;fontSize=12;" parent="1" source="21" edge="1">
          <mxGeometry x="614.4878472222224" y="174.99999999999997" width="100" height="100" as="geometry">
            <mxPoint x="674.6527777777778" y="110" as="sourcePoint" />
            <mxPoint x="653" y="270" as="targetPoint" />
          </mxGeometry>
        </mxCell>
        <mxCell id="3" value="1 request" style="edgeStyle=none;verticalLabelPosition=top;verticalAlign=bottom;labelPosition=left;align=right;fontSize=12;" parent="1" edge="1">
          <mxGeometry width="100" height="100" as="geometry">
            <mxPoint x="110" y="149.5" as="sourcePoint" />
            <mxPoint x="200" y="149.5" as="targetPoint" />
            <mxPoint x="25" y="-9" as="offset" />
          </mxGeometry>
        </mxCell>
        <mxCell id="4" value="Customer MS" style="shadow=1;fillColor=#A2C4C9;strokeColor=none;fontSize=12;" parent="1" vertex="1">
          <mxGeometry x="152.5" y="60" width="105" height="50" as="geometry" />
        </mxCell>
        <mxCell id="7" value="Fraud MS" style="shadow=1;fillColor=#A2C4C9;strokeColor=none;fontSize=12;" parent="1" vertex="1">
          <mxGeometry x="295" y="60" width="105" height="50" as="geometry" />
        </mxCell>
        <mxCell id="8" value="" style="edgeStyle=none;endArrow=none;dashed=1;fontSize=12;" parent="1" source="7" edge="1">
          <mxGeometry x="272.3350694444445" y="165" width="100" height="100" as="geometry">
            <mxPoint x="347.2588734567901" y="110" as="sourcePoint" />
            <mxPoint x="347" y="270" as="targetPoint" />
          </mxGeometry>
        </mxCell>
        <mxCell id="9" value="2 call Fraud" style="edgeStyle=none;verticalLabelPosition=top;verticalAlign=bottom;fontSize=12;" parent="1" edge="1">
          <mxGeometry width="100" height="100" as="geometry">
            <mxPoint x="210" y="179.5" as="sourcePoint" />
            <mxPoint x="340" y="180" as="targetPoint" />
            <mxPoint x="5" y="-10" as="offset" />
          </mxGeometry>
        </mxCell>
        <mxCell id="12" value="" style="edgeStyle=none;verticalLabelPosition=top;verticalAlign=bottom;labelPosition=left;align=right;endArrow=none;startArrow=classic;fontSize=12;" parent="1" edge="1">
          <mxGeometry x="110" y="135.75887345679013" width="100" height="100" as="geometry">
            <mxPoint x="110" y="235.75887345679013" as="sourcePoint" />
            <mxPoint x="200" y="235.75887345679013" as="targetPoint" />
          </mxGeometry>
        </mxCell>
        <mxCell id="CJhquZ9jdKp3idAawmTU-104" value="5 response 200" style="edgeLabel;html=1;align=center;verticalAlign=middle;resizable=0;points=[];fontSize=12;" vertex="1" connectable="0" parent="12">
          <mxGeometry relative="1" as="geometry">
            <mxPoint x="-3" y="-16" as="offset" />
          </mxGeometry>
        </mxCell>
        <mxCell id="13" value="3 produce topic&#xa;customerKafkaTopic" style="edgeStyle=none;verticalLabelPosition=top;verticalAlign=bottom;fontSize=12;" parent="1" edge="1">
          <mxGeometry width="100" height="100" as="geometry">
            <mxPoint x="352.5" y="201.20563271604937" as="sourcePoint" />
            <mxPoint x="495" y="201" as="targetPoint" />
            <mxPoint x="-4" y="-11" as="offset" />
          </mxGeometry>
        </mxCell>
        <mxCell id="15" value="Kafka" style="shadow=1;fillColor=#A2C4C9;strokeColor=none;fontSize=12;" parent="1" vertex="1">
          <mxGeometry x="450.0039506172839" y="59.99999999999997" width="105" height="50" as="geometry" />
        </mxCell>
        <mxCell id="16" value="" style="edgeStyle=none;endArrow=none;dashed=1;fontSize=12;" parent="1" source="15" edge="1">
          <mxGeometry x="437.042824074074" y="270" width="100" height="100" as="geometry">
            <mxPoint x="514.542824074074" y="219.99999999999997" as="sourcePoint" />
            <mxPoint x="503" y="270" as="targetPoint" />
          </mxGeometry>
        </mxCell>
        <mxCell id="17" value="" style="fillColor=#CC4125;strokeColor=#660000;fontSize=12;" parent="1" vertex="1">
          <mxGeometry x="497.5" y="150" width="10" height="100" as="geometry" />
        </mxCell>
        <mxCell id="CJhquZ9jdKp3idAawmTU-94" style="edgeStyle=orthogonalEdgeStyle;rounded=0;orthogonalLoop=1;jettySize=auto;html=1;exitX=0;exitY=0.25;exitDx=0;exitDy=0;endArrow=classic;endFill=1;startArrow=none;startFill=0;fontSize=12;" edge="1" parent="1" source="21">
          <mxGeometry relative="1" as="geometry">
            <mxPoint x="510" y="210" as="targetPoint" />
            <Array as="points">
              <mxPoint x="648" y="210" />
            </Array>
          </mxGeometry>
        </mxCell>
        <mxCell id="CJhquZ9jdKp3idAawmTU-98" value="6 consume topic&lt;br style=&quot;padding: 0px; margin: 0px; font-size: 12px;&quot;&gt;customerKafkaTopic" style="edgeLabel;html=1;align=center;verticalAlign=middle;resizable=0;points=[];fontSize=12;" vertex="1" connectable="0" parent="CJhquZ9jdKp3idAawmTU-94">
          <mxGeometry x="-0.1341" y="-1" relative="1" as="geometry">
            <mxPoint x="-9" y="-29" as="offset" />
          </mxGeometry>
        </mxCell>
        <mxCell id="22" value="Notification MS" style="shadow=1;fillColor=#A2C4C9;strokeColor=none;fontSize=12;" parent="1" vertex="1">
          <mxGeometry x="600" y="60" width="105" height="50" as="geometry" />
        </mxCell>
        <mxCell id="33" value="" style="edgeStyle=elbowEdgeStyle;elbow=horizontal;endArrow=none;dashed=1;fontSize=12;" parent="1" source="4" edge="1">
          <mxGeometry x="230.00000000000003" y="310" width="100" height="100" as="geometry">
            <mxPoint x="230.00000000000003" y="410" as="sourcePoint" />
            <mxPoint x="205" y="270" as="targetPoint" />
          </mxGeometry>
        </mxCell>
        <mxCell id="CJhquZ9jdKp3idAawmTU-91" style="edgeStyle=orthogonalEdgeStyle;rounded=0;orthogonalLoop=1;jettySize=auto;html=1;dashed=1;endArrow=none;endFill=0;fontSize=12;" edge="1" parent="1" source="CJhquZ9jdKp3idAawmTU-89">
          <mxGeometry relative="1" as="geometry">
            <mxPoint x="75" y="270" as="targetPoint" />
          </mxGeometry>
        </mxCell>
        <mxCell id="CJhquZ9jdKp3idAawmTU-106" value="User" style="edgeLabel;html=1;align=center;verticalAlign=middle;resizable=0;points=[];fontSize=12;" vertex="1" connectable="0" parent="CJhquZ9jdKp3idAawmTU-91">
          <mxGeometry x="-0.4427" relative="1" as="geometry">
            <mxPoint x="-25" y="-22" as="offset" />
          </mxGeometry>
        </mxCell>
        <mxCell id="CJhquZ9jdKp3idAawmTU-89" value="" style="shape=umlActor;verticalLabelPosition=bottom;verticalAlign=top;html=1;outlineConnect=0;fontSize=12;" vertex="1" parent="1">
          <mxGeometry x="60" y="60" width="30" height="60" as="geometry" />
        </mxCell>
        <mxCell id="21" value="" style="fillColor=#CC4125;strokeColor=#660000;fontSize=12;" parent="1" vertex="1">
          <mxGeometry x="647.5" y="200" width="10" height="30" as="geometry" />
        </mxCell>
        <mxCell id="CJhquZ9jdKp3idAawmTU-97" value="" style="edgeStyle=none;endArrow=none;dashed=1;fontSize=12;" edge="1" parent="1" source="22" target="21">
          <mxGeometry x="614.4878472222224" y="174.99999999999997" width="100" height="100" as="geometry">
            <mxPoint x="652.5641025641023" y="110" as="sourcePoint" />
            <mxPoint x="653" y="280" as="targetPoint" />
          </mxGeometry>
        </mxCell>
        <mxCell id="6" value="" style="fillColor=#CC4125;strokeColor=#660000;fontSize=12;" parent="1" vertex="1">
          <mxGeometry x="342.5" y="170" width="10" height="40" as="geometry" />
        </mxCell>
        <mxCell id="CJhquZ9jdKp3idAawmTU-102" style="edgeStyle=orthogonalEdgeStyle;rounded=0;orthogonalLoop=1;jettySize=auto;html=1;exitX=1;exitY=0.5;exitDx=0;exitDy=0;startArrow=none;startFill=0;endArrow=classic;endFill=1;entryX=1.05;entryY=0.878;entryDx=0;entryDy=0;entryPerimeter=0;fontSize=12;" edge="1" parent="1">
          <mxGeometry relative="1" as="geometry">
            <mxPoint x="210.5" y="220.24" as="targetPoint" />
            <mxPoint x="210" y="190" as="sourcePoint" />
            <Array as="points">
              <mxPoint x="237.5" y="190" />
              <mxPoint x="237.5" y="220" />
            </Array>
          </mxGeometry>
        </mxCell>
        <mxCell id="CJhquZ9jdKp3idAawmTU-103" value="4 Check response&lt;br style=&quot;font-size: 12px;&quot;&gt;from Fraud" style="edgeLabel;html=1;align=center;verticalAlign=middle;resizable=0;points=[];fontSize=12;" vertex="1" connectable="0" parent="CJhquZ9jdKp3idAawmTU-102">
          <mxGeometry x="-0.1098" y="1" relative="1" as="geometry">
            <mxPoint x="51" y="10" as="offset" />
          </mxGeometry>
        </mxCell>
        <mxCell id="2" value="" style="fillColor=#CC4125;strokeColor=#660000;fontSize=12;" parent="1" vertex="1">
          <mxGeometry x="200" y="150" width="10" height="100" as="geometry" />
        </mxCell>
      </root>
    </mxGraphModel>
  </diagram>
</mxfile>
